<?xml version="1.0" encoding="UTF-8" standalone="no"?>
<!DOCTYPE svg PUBLIC "-//W3C//DTD SVG 1.1//EN" "http://www.w3.org/Graphics/SVG/1.1/DTD/svg11.dtd"
[
<!ATTLIST g
  xmlns:vectornator CDATA #FIXED "http://vectornator.io"
  vectornator:layerName CDATA #IMPLIED >
<!ATTLIST g
  xmlns:vectornator CDATA #FIXED "http://vectornator.io"
  vectornator:mask CDATA #IMPLIED >
<!ATTLIST text
  xmlns:vectornator CDATA #FIXED "http://vectornator.io"
  vectornator:width CDATA #IMPLIED >
<!ATTLIST text
  xmlns:vectornator CDATA #FIXED "http://vectornator.io"
  vectornator:text CDATA #IMPLIED >

<!ATTLIST path
  xmlns:vectornator CDATA #FIXED "http://vectornator.io"
  vectornator:blendMode CDATA #IMPLIED >
<!ATTLIST path
  xmlns:vectornator CDATA #FIXED "http://vectornator.io"
  vectornator:shadowColor CDATA #IMPLIED >
<!ATTLIST path
  xmlns:vectornator CDATA #FIXED "http://vectornator.io"
  vectornator:shadowOpacity CDATA #IMPLIED >
<!ATTLIST path
  xmlns:vectornator CDATA #FIXED "http://vectornator.io"
  vectornator:shadowRadius CDATA #IMPLIED >
<!ATTLIST path
  xmlns:vectornator CDATA #FIXED "http://vectornator.io"
  vectornator:shadowOffset CDATA #IMPLIED >
<!ATTLIST path
  xmlns:vectornator CDATA #FIXED "http://vectornator.io"
  vectornator:shadowAngle CDATA #IMPLIED >

<!ATTLIST image
  xmlns:vectornator CDATA #FIXED "http://vectornator.io"
  vectornator:blendMode CDATA #IMPLIED >
<!ATTLIST image
  xmlns:vectornator CDATA #FIXED "http://vectornator.io"
  vectornator:shadowColor CDATA #IMPLIED >
<!ATTLIST image
  xmlns:vectornator CDATA #FIXED "http://vectornator.io"
  vectornator:shadowOpacity CDATA #IMPLIED >
<!ATTLIST image
  xmlns:vectornator CDATA #FIXED "http://vectornator.io"
  vectornator:shadowRadius CDATA #IMPLIED >
<!ATTLIST image
  xmlns:vectornator CDATA #FIXED "http://vectornator.io"
  vectornator:shadowOffset CDATA #IMPLIED >
<!ATTLIST image
  xmlns:vectornator CDATA #FIXED "http://vectornator.io"
  vectornator:shadowAngle CDATA #IMPLIED >

<!ATTLIST g
  xmlns:vectornator CDATA #FIXED "http://vectornator.io"
  vectornator:blendMode CDATA #IMPLIED >
<!ATTLIST g
  xmlns:vectornator CDATA #FIXED "http://vectornator.io"
  vectornator:shadowColor CDATA #IMPLIED >
<!ATTLIST g
  xmlns:vectornator CDATA #FIXED "http://vectornator.io"
  vectornator:shadowOpacity CDATA #IMPLIED >
<!ATTLIST g
  xmlns:vectornator CDATA #FIXED "http://vectornator.io"
  vectornator:shadowRadius CDATA #IMPLIED >
<!ATTLIST g
  xmlns:vectornator CDATA #FIXED "http://vectornator.io"
  vectornator:shadowOffset CDATA #IMPLIED >
<!ATTLIST g
  xmlns:vectornator CDATA #FIXED "http://vectornator.io"
  vectornator:shadowAngle CDATA #IMPLIED >

<!ENTITY % SVG.filter.extra.content  "| feDropShadow" >
<!ELEMENT feDropShadow EMPTY>
<!ATTLIST feDropShadow
  xmlns:svg CDATA #FIXED "http://www.w3.org/Graphics/SVG/1.1/DTD/svg11.dtd"
  dx CDATA #IMPLIED>
<!ATTLIST feDropShadow
  xmlns:svg CDATA #FIXED "http://www.w3.org/Graphics/SVG/1.1/DTD/svg11.dtd"
  dy CDATA #IMPLIED>
<!ATTLIST feDropShadow
  xmlns:svg CDATA #FIXED "http://www.w3.org/Graphics/SVG/1.1/DTD/svg11.dtd"
  stdDeviation CDATA #IMPLIED>
<!ATTLIST feDropShadow
  xmlns:svg CDATA #FIXED "http://www.w3.org/Graphics/SVG/1.1/DTD/svg11.dtd"
  flood-opacity CDATA #IMPLIED>
<!ATTLIST feDropShadow
  xmlns:svg CDATA #FIXED "http://www.w3.org/Graphics/SVG/1.1/DTD/svg11.dtd"
  in CDATA #IMPLIED>
<!ATTLIST feDropShadow
  xmlns:svg CDATA #FIXED "http://www.w3.org/Graphics/SVG/1.1/DTD/svg11.dtd"
  result CDATA #IMPLIED>
<!ATTLIST feDropShadow
  xmlns:svg CDATA #FIXED "http://www.w3.org/Graphics/SVG/1.1/DTD/svg11.dtd"
  flood-color CDATA #IMPLIED>
]
>
<!-- Created with Vectornator (http://vectornator.io/) -->
<svg height="100%" stroke-miterlimit="10" style="fill-rule:nonzero;clip-rule:evenodd;stroke-linecap:round;stroke-linejoin:round;" version="1.1" viewBox="0 0 440 120" width="100%" xml:space="preserve" xmlns="http://www.w3.org/2000/svg" xmlns:vectornator="http://vectornator.io" xmlns:xlink="http://www.w3.org/1999/xlink">
<defs/>
<g id="SvgjsG7258" vectornator:layerName="SvgjsG7258">
<g opacity="1">
<path d="M23.0577 13.5L94.0577 13.5C98.476 13.5 102.058 17.0817 102.058 21.5L102.058 98.5C102.058 102.918 98.476 106.5 94.0577 106.5L23.0577 106.5C18.6394 106.5 15.0577 102.918 15.0577 98.5L15.0577 21.5C15.0577 17.0817 18.6394 13.5 23.0577 13.5Z" fill="#111111" fill-rule="evenodd" opacity="1" stroke="none"/>
<path d="M55.6438 40.9341L55.7299 50.2366C55.7299 53.9404 61.5009 54.1126 61.5009 50.3227L61.5009 41.0202C61.5009 37.2303 55.816 37.0581 55.6438 40.9341ZM36.0913 29.0476L36.0913 29.0476C36.1774 28.9615 80.192 28.3585 80.3643 28.5308C81.5701 29.6505 82.1731 41.537 82.1731 54.5433C80.3643 56.266 78.2109 56.5244 77.8664 56.6105C74.5071 56.9551 74.3349 61.5202 77.4357 62.2092C79.4168 62.7261 81.8285 64.7933 82.1731 65.6546C81.9147 78.2302 81.3979 89.4276 80.6227 90.1167C78.8139 91.6671 36.9527 92.0978 35.8329 90.1167C34.1102 86.9297 35.7468 29.1337 36.0913 29.0476ZM55.3854 66.3437L55.2131 76.8521C55.127 80.642 60.8979 80.7281 60.9841 76.9382L61.2425 66.516C61.2425 62.6399 55.4715 62.5538 55.3854 66.3437Z" fill="#ffffff" fill-rule="evenodd" opacity="1" stroke="none"/>
<path d="M141.309 42.1531L141.389 50.8522C141.389 54.3158 146.786 54.4769 146.786 50.9328L146.786 42.2336C146.786 38.6895 141.47 38.5284 141.309 42.1531ZM123.024 31.0375L123.024 31.0375C123.105 30.957 164.265 30.3931 164.426 30.5542C165.553 31.6013 166.117 42.7169 166.117 54.8796C164.426 56.4906 162.412 56.7322 162.09 56.8128C158.949 57.135 158.787 61.404 161.687 62.0484C163.54 62.5317 165.795 64.4648 166.117 65.2703C165.876 77.0303 165.392 87.5015 164.667 88.1458C162.976 89.5957 123.83 89.9984 122.783 88.1458C121.172 85.1656 122.702 31.1181 123.024 31.0375ZM141.067 65.9147L140.906 75.7415C140.825 79.2856 146.222 79.3661 146.303 75.822L146.544 66.0758C146.544 62.4511 141.148 62.3706 141.067 65.9147ZM190.684 41.992L190.04 50.5301C189.879 54.1547 195.276 54.4769 195.517 50.9328L196.001 42.3142C196.242 38.7701 190.845 38.3673 190.684 41.992ZM172.319 30.957L172.319 30.957C172.4 30.957 213.56 30.3126 213.721 30.5542C216.299 32.8096 215.654 86.5349 213.963 88.0653C213.157 88.7097 204.619 89.193 195.437 89.2735C193.745 81.5409 195.034 72.5196 195.034 72.5196C195.517 68.8949 190.121 68.2506 189.718 71.7141C189.718 71.7947 188.429 80.816 190.04 89.3541C180.858 89.2735 172.561 88.8708 172.078 88.0653C170.467 85.1656 172.078 31.1181 172.319 30.957ZM221.615 31.0375L221.615 31.0375C227.092 27.735 238.932 49.1607 241.027 53.752C241.671 55.0407 243.282 55.6046 244.571 54.9602C245.94 54.3963 246.584 52.7854 245.94 51.4161C245.94 51.3355 240.785 40.2199 232.73 30.7959C244.893 30.6348 263.016 30.4737 263.097 30.5542C265.594 32.8901 264.949 86.6154 263.338 88.1458C258.344 92.4149 246.665 70.2643 244.732 66.2369C244.088 64.8676 242.477 64.3037 241.107 64.9481C239.818 65.5119 239.174 67.1229 239.818 68.4922C239.818 68.5727 244.974 79.6883 253.109 89.1124C240.946 89.5957 222.179 89.4346 221.454 88.1458C219.843 85.1656 221.373 31.1181 221.615 31.0375ZM271.152 31.0375L271.152 31.0375C271.232 30.957 282.67 30.7959 294.913 30.7153C294.349 38.3673 295.316 44.0862 295.316 44.0862C295.638 45.5361 297.088 46.5027 298.538 46.261C302.565 45.5361 299.343 41.3476 300.31 30.7153C312.473 30.5542 323.91 30.4737 324.071 30.5542C327.293 32.8901 326.488 86.5349 324.313 88.0653C323.83 88.3875 320.85 88.7097 316.58 88.9513C314.325 86.2127 308.767 77.9163 311.667 66.0758C312.392 62.6928 307.156 61.404 306.431 64.8676C303.693 75.822 307.156 84.3601 310.217 89.1124C302.807 89.3541 293.866 89.4346 286.375 89.2735C289.436 84.4407 292.899 75.9831 290.322 64.8676C289.436 61.404 284.2 62.6928 285.086 66.0758C287.905 78.2385 282.025 86.6154 279.851 89.1124C274.857 88.8708 271.313 88.5486 270.91 88.0653C268.896 85.1656 270.91 31.118 271.152 31.0375ZM350.813 41.992L350.169 50.5301C350.008 54.1547 355.404 54.4769 355.646 50.9328L356.129 42.3142C356.371 38.7701 350.974 38.3673 350.813 41.992ZM332.448 30.957L332.448 30.957C332.529 30.957 373.689 30.3126 373.85 30.5542C376.427 32.8096 375.783 86.5349 374.092 88.0653C373.286 88.7097 364.748 89.193 355.566 89.2735C353.874 81.5409 355.163 72.5196 355.163 72.5196C355.646 68.8949 350.249 68.2506 349.847 71.7141C349.847 71.7947 348.558 80.816 350.169 89.3541C340.986 89.2735 332.69 88.8708 332.207 88.0653C330.596 85.1656 332.207 31.1181 332.448 30.957ZM381.824 31.0375L381.824 31.0375C381.824 30.957 423.065 30.3931 423.226 30.5542C425.803 32.8901 425.159 86.5349 423.387 88.1458C421.776 89.5957 382.63 89.9984 381.582 88.1458C379.972 85.1656 381.502 31.1181 381.824 31.0375ZM400.431 42.5558L399.867 65.9147L399.706 76.4664C399.625 77.9968 400.833 79.205 402.283 79.205C403.814 79.2856 405.022 78.0774 405.022 76.6275L405.264 66.0758L405.827 42.6364C405.908 41.1865 404.7 39.8978 403.169 39.8978C401.719 39.8172 400.431 41.0254 400.431 42.5558Z" fill="#111111" fill-rule="evenodd" opacity="1" stroke="none"/>
</g>
</g>
</svg>
