<svg t="1685003629549" class="icon" viewBox="0 0 1131 1024" version="1.1" xmlns="http://www.w3.org/2000/svg" p-id="2505" width="200" height="200"><path d="M311.139009 1.415563A228.988152 228.988152 0 0 1 415.790215 14.143412 1547.706482 1547.706482 0 0 1 629.335243 101.824152a2602.138091 2602.138091 0 0 1 334.714154 198.667587 758.01414 758.01414 0 0 1 130.729155 108.441276c21.778764 24.833448 39.597754 56.568219 36.147092 90.509151-5.09114 40.615982-33.318681 73.029571-60.98054 101.200545a2170.296304 2170.296304 0 0 1-381.778913 290.308102 1272.275822 1272.275822 0 0 1-223.727307 105.047183c-50.119442 17.309875-103.067296 32.07418-156.6374 26.983041a130.106905 130.106905 0 0 1-84.116942-39.597754 152.734192 152.734192 0 0 1-34.61975-73.538685l1.527342-2.149592c23.419243-5.656822 46.555645-12.727849 69.974887-18.101831a1427.216175 1427.216175 0 0 0 284.02903-107.140207 1921.169866 1921.169866 0 0 0 278.089366-165.462042c28.28411-21.60906 60.075449-42.765574 76.367096-76.367096a77.724733 77.724733 0 0 0-5.260844-75.348868 238.435045 238.435045 0 0 0-66.580795-66.580794 923.136772 923.136772 0 0 0-93.39413-58.77438C672.383658 303.263582 607.83932 271.528811 543.068709 239.79404a1802.433174 1802.433174 0 0 0-231.137745-92.432471c-35.355137-10.295416-70.484001-21.099946-105.895706-30.659975a298.963039 298.963039 0 0 1 14.877441-46.442508A117.831601 117.831601 0 0 1 311.139009 1.415563z m0 0" fill="#10ABF2" p-id="2506"></path><path d="M92.276568 123.602917c33.205545-15.89567 71.389093-11.313644 106.404821-4.864867-10.578257 46.442508-16.574488 93.790108-23.81522 140.74173-1.018228 20.251423-3.16782 40.446277-5.656822 60.584563-3.846639 25.455699-2.941547 50.911397-7.014459 76.367096-0.735387 29.528611-2.149592 59.057221-3.337525 89.094945-3.054684 28.28411-1.244501 57.133902-1.753615 85.757421 0 42.765574-1.018228 85.644284 2.149592 128.296722 2.036456 65.166589 7.127596 130.106905 15.669397 194.820947v9.673166c-33.318681 5.996231-71.671934 10.80453-101.822795-9.56003S34.520416 836.249345 26.883707 803.270073A1862.056077 1862.056077 0 0 1 0.013803 480.831222a1407.304161 1407.304161 0 0 1 15.273419-168.403589 707.442151 707.442151 0 0 1 31.45193-134.519225 94.525495 94.525495 0 0 1 45.537416-54.362059z m0 0" fill="#FF8F21" p-id="2507"></path><path d="M199.30364 115.57023l7.127595 1.018228C241.84294 126.148487 277.198078 136.953017 312.326942 147.078728a1800.792695 1800.792695 0 0 1 231.250881 92.602175c64.261497 31.961044 128.805835 63.639247 190.91774 100.182317a922.910499 922.910499 0 0 1 93.280994 59.170357 238.548181 238.548181 0 0 1 66.524226 66.524226 77.781302 77.781302 0 0 1 5.147708 75.575141c-16.008806 33.205545-47.573872 54.362059-76.367097 76.367096a1921.792117 1921.792117 0 0 1-278.089366 165.462042A1427.66872 1427.66872 0 0 1 260.227612 889.819448c-23.419243 5.656822-46.555645 12.727849-69.974888 18.10183l-13.350099 2.432434c-0.62225-5.656822-1.414205-11.313644-2.149593-16.970466-8.541801-64.657475-13.632941-129.654359-15.669396-194.820947-3.16782-42.652437-1.753615-85.531148-2.149593-128.296722a802.250487 802.250487 0 0 1 1.810183-85.75742c1.131364-29.528611 2.54557-59.057221 3.280957-89.094946 4.072912-25.455699 3.16782-50.911397 7.014459-76.367096 2.262729-20.081718 4.468889-40.33314 5.656822-60.584563 7.240732-46.951622 12.727849-94.299222 23.81522-140.74173l0.622251-2.941547M333.200615 285.105183a29.528611 29.528611 0 0 0-19.459468 29.415474 402.030335 402.030335 0 0 0 1.018228 56.56822c0.735387 56.22881-0.905092 112.514188 1.018228 168.742998v149.509804a33.205545 33.205545 0 0 0 14.764305 32.187317 43.387824 43.387824 0 0 0 37.165321-7.580142c90.509151-60.98054 181.583984-121.282262 272.206271-181.979961 11.313644-8.145824 23.645516-19.855445 22.287879-35.128865a44.123211 44.123211 0 0 0-25.455699-32.809567L360.183655 292.345915a38.918935 38.918935 0 0 0-26.98304-7.240732z m0 0" fill="#7DE621" p-id="2508"></path><path d="M333.200615 285.105183a38.918935 38.918935 0 0 1 26.98304 7.240732l277.184275 171.684546a44.179779 44.179779 0 0 1 25.455699 32.809567c1.414205 15.273419-10.80453 26.983041-22.287878 35.128865-90.509151 60.697699-181.753689 120.999421-272.206272 181.979961a43.387824 43.387824 0 0 1-36.882479 7.749846A33.205545 33.205545 0 0 1 316.795831 690.133634V540.397557c-1.923319-56.22881 0-112.514188-1.018228-168.742998a402.426313 402.426313 0 0 1-1.810183-57.133902 29.528611 29.528611 0 0 1 19.459468-29.415474z m0 0" fill="#FFFFFF" p-id="2509"></path></svg>